<?xml version="1.0" standalone="no"?>
<!DOCTYPE svg PUBLIC "-//W3C//DTD SVG 20010904//EN"
 "http://www.w3.org/TR/2001/REC-SVG-20010904/DTD/svg10.dtd">
<svg version="1.0" xmlns="http://www.w3.org/2000/svg"
 width="180.000000pt" height="180.000000pt" viewBox="0 0 180.000000 180.000000"
 preserveAspectRatio="xMidYMid meet">
<metadata>
Created by potrace 1.11, written by Peter Selinger 2001-2013
</metadata>
<g transform="translate(0.000000,180.000000) scale(0.100000,-0.100000)"
fill="#000000" stroke="none">
<path d="M735 1789 c-357 -67 -616 -340 -673 -709 -14 -90 -7 -331 12 -415 22
-96 79 -231 126 -300 45 -66 195 -215 216 -215 3 0 22 -11 42 -25 64 -44 188
-87 317 -111 22 -4 206 -8 409 -8 318 -1 370 1 377 14 16 29 199 515 199 530
0 5 -9 10 -19 10 -12 0 -36 -24 -65 -64 -183 -256 -542 -355 -811 -222 -441
218 -435 1043 10 1262 176 86 383 78 580 -24 77 -40 206 -161 240 -225 19 -36
47 -48 60 -27 4 6 -28 99 -69 208 -42 108 -87 226 -100 262 l-24 65 -388 1
c-214 1 -411 -2 -439 -7z"/>
<path d="M1057 1479 c-10 -6 -27 -9 -37 -6 -11 3 -20 1 -22 -4 -2 -5 -16 -10
-33 -13 -42 -5 -97 -31 -88 -41 5 -4 2 -5 -6 0 -7 4 -16 3 -20 -3 -3 -6 -13
-12 -20 -14 -14 -3 -48 -28 -76 -55 -7 -7 -16 -9 -20 -5 -5 4 -5 2 -1 -5 3 -6
1 -15 -6 -20 -27 -17 -38 -77 -29 -159 1 -15 66 -11 86 6 8 7 15 9 15 5 0 -4
12 5 28 21 15 16 31 30 35 31 24 5 28 11 5 8 -14 -2 -38 -11 -52 -20 -14 -10
-26 -14 -26 -10 0 4 -7 2 -15 -5 -9 -7 -18 -11 -21 -8 -4 5 9 17 78 73 9 7 19
11 22 8 3 -4 6 -1 6 6 0 6 11 16 25 21 14 5 25 14 25 20 0 6 4 9 9 5 5 -3 17
2 26 11 9 9 27 17 41 17 13 0 24 3 24 8 0 4 8 8 18 9 117 5 160 5 156 -1 -2
-4 9 -9 24 -12 58 -11 77 -17 80 -27 2 -5 9 -10 16 -10 7 0 21 -9 31 -20 10
-11 24 -20 32 -20 8 0 12 -3 10 -7 -6 -10 19 -34 27 -26 3 4 6 -1 6 -10 0 -9
5 -17 10 -17 6 0 10 -5 10 -10 0 -6 9 -20 20 -32 10 -12 17 -24 15 -29 -3 -4
2 -14 10 -22 8 -9 17 -24 18 -34 2 -10 9 -29 14 -43 6 -14 9 -29 6 -33 -3 -4
1 -14 7 -22 10 -12 10 -15 -1 -15 -9 0 -10 -3 -3 -8 11 -8 16 -78 7 -102 -3
-8 -8 -26 -10 -40 -2 -13 -9 -30 -15 -37 -7 -9 -7 -13 1 -13 8 0 7 -6 -3 -16
-9 -8 -14 -20 -11 -25 4 -5 1 -9 -4 -9 -6 0 -11 -7 -11 -15 0 -8 -5 -15 -12
-15 -6 0 -9 -3 -5 -6 3 -4 1 -12 -6 -20 -27 -30 -36 -42 -33 -45 1 -2 -16 -22
-37 -44 -22 -22 -37 -33 -32 -25 4 8 -5 2 -20 -15 -14 -16 -30 -29 -33 -28
-14 5 -42 -9 -42 -20 0 -7 -4 -6 -10 3 -7 12 -10 12 -10 1 0 -7 -6 -11 -14 -8
-8 3 -17 3 -21 -1 -9 -10 -95 -10 -95 0 0 4 -7 8 -15 8 -9 0 -25 9 -37 20 -12
11 -18 20 -14 20 5 0 4 6 -2 13 -10 12 -13 147 -3 147 3 0 7 13 8 28 3 42 7
56 18 64 6 5 5 8 -3 8 -7 0 -10 5 -7 10 4 6 10 8 14 6 4 -3 8 1 8 9 0 8 -5 15
-10 15 -5 0 -4 6 2 13 6 8 8 17 4 20 -3 4 -1 7 5 7 6 0 9 9 7 20 -2 11 0 22 5
25 5 3 6 13 3 22 -4 9 -2 14 3 10 5 -3 9 12 9 34 0 21 3 39 7 39 4 0 7 8 7 18
0 9 2 56 4 105 2 48 0 87 -5 87 -4 0 -8 5 -8 11 0 5 5 7 10 4 6 -4 2 9 -9 28
-11 19 -18 38 -15 41 2 3 1 4 -2 1 -4 -2 -15 4 -24 15 -15 17 -19 18 -29 6 -7
-8 -8 -17 -4 -19 16 -10 3 -211 -17 -263 -5 -12 -6 -25 -3 -28 4 -3 1 -6 -5
-6 -6 0 -9 -7 -6 -15 4 -8 2 -15 -2 -15 -5 0 -10 -15 -11 -32 -2 -18 -7 -34
-13 -36 -6 -2 -8 -8 -4 -13 3 -5 2 -15 -3 -21 -8 -13 -12 -29 -15 -60 -1 -10
-5 -18 -9 -18 -4 0 -10 -15 -14 -32 -9 -37 -12 -47 -14 -50 -2 -2 -5 -14 -7
-27 -2 -14 -10 -36 -17 -50 -7 -14 -12 -38 -12 -53 1 -16 -2 -28 -6 -28 -4 0
-6 -8 -4 -17 1 -10 -2 -24 -8 -30 -6 -9 -6 -13 2 -13 7 0 8 -8 1 -25 -6 -16
-6 -25 0 -25 6 0 10 -9 10 -20 0 -11 5 -20 10 -20 6 0 10 -6 10 -14 0 -8 9
-18 20 -21 11 -3 20 -11 20 -16 0 -6 4 -8 9 -4 5 3 12 1 16 -5 4 -6 11 -8 16
-5 5 4 9 1 9 -5 0 -7 7 -10 15 -6 8 3 15 2 15 -3 0 -4 50 -8 110 -8 61 0 110
3 110 8 0 5 11 7 25 5 14 -3 25 -1 25 4 0 5 9 7 20 5 11 -2 20 1 20 6 0 6 5 7
10 4 6 -3 10 -1 10 4 0 6 3 10 8 9 12 -2 60 20 67 32 3 5 10 8 15 5 5 -3 16 5
24 17 9 12 16 19 16 14 0 -4 17 7 38 25 20 18 36 37 35 41 -2 4 5 8 14 8 9 0
14 3 10 6 -3 3 2 14 11 24 34 37 43 50 35 50 -4 0 0 5 10 11 9 6 15 14 12 18
-2 5 2 14 10 21 8 7 12 16 9 21 -3 5 -1 9 4 9 5 0 9 7 10 15 1 8 3 22 4 30 1
8 5 15 9 15 5 0 6 7 3 15 -4 8 -1 15 5 15 6 0 8 7 5 15 -4 8 -1 22 6 30 7 8 8
15 3 15 -10 0 -11 28 -2 45 5 9 4 100 -1 100 -2 0 -4 16 -5 35 -2 19 -4 37 -5
40 -1 3 -2 8 -1 13 0 4 -4 7 -10 7 -6 0 -9 9 -6 20 3 11 1 20 -5 20 -5 0 -6 5
-3 10 3 6 1 10 -4 10 -6 0 -11 7 -11 15 0 8 -4 15 -8 15 -4 0 -9 10 -9 22 -1
13 -10 28 -19 35 -10 7 -14 13 -9 13 4 0 -1 8 -12 18 -11 9 -22 25 -26 35 -4
10 -11 15 -17 12 -5 -3 -10 0 -10 8 0 8 -12 23 -27 32 -16 10 -36 25 -45 34
-34 32 -46 40 -52 34 -3 -4 -6 -1 -6 6 0 7 -4 10 -9 6 -5 -3 -17 3 -27 12 -10
10 -19 17 -21 16 -7 -5 -63 10 -63 17 0 4 -15 7 -34 6 -19 -1 -32 2 -29 7 2 4
-7 6 -21 3 -14 -3 -26 0 -26 5 0 6 -8 6 -20 -1 -15 -8 -20 -8 -20 1 0 8 -4 8
-15 -1 -11 -9 -15 -9 -15 -1 0 9 -5 9 -21 0 -15 -8 -19 -8 -15 0 9 13 6 13
-17 0z"/>
</g>
</svg>
